# xmcd CD database file
#
# Track frame offsets:
#	182
#	13397
#	27457
#	42195
#	65532
#	77957
#	91407
#	109700
#	126095
#	145992
#
# Disc length: 2136 seconds
#
# Revision: 0
# Processed by: cddbd v1.5.2PL0 Copyright (c) Steve Scherf et al.
# Submitted via: CDex 1.70beta2
#
DISCID=8a08560a
DTITLE=Tomáš Böhm - Carolina
DYEAR=1900
DGENRE=Country
TTITLE0=Růži zkouším utrhnout
TTITLE1=Tam za třicátou mílí
TTITLE2=Šel bych spát
TTITLE3=Prázdný rám
TTITLE4=Bowtie
TTITLE5=Dr. Country
TTITLE6=Co bych dělat měl
TTITLE7=Jít svou pěšinou
TTITLE8=O půl čtvrté ráno
TTITLE9=Drobky štístka po kapsách
EXTD=
EXTT0=
EXTT1=
EXTT2=
EXTT3=
EXTT4=
EXTT5=
EXTT6=
EXTT7=
EXTT8=
EXTT9=
PLAYORDER=
